<svg xmlns="http://www.w3.org/2000/svg" viewBox="0 0 1343 432"><path fill="none" stroke="#3baee3" stroke-width="2" d="M221.04 382q.22-.59-.05-1.09-.24-.43-.24-.93V59.25c0-1.2-.4-1.82-.9-2.77" vector-effect="non-scaling-stroke"/><path fill="#1d9cd8" d="M221.04 382q.22-.59-.05-1.09-.24-.43-.24-.93V59.25c0-1.2-.4-1.82-.9-2.77q13.91-18.06 31.06-30.83C316.4-23.11 409.71.19 434.44 80.99c21.66 70.81-14.19 132.94-61.15 183.06-43.3 46.2-95.71 85.11-150.85 117.4q-.96.56-1.4.55Z"/><path fill="#59c0ee" d="M219.85 56.48c.5.95.9 1.57.9 2.77v320.73q0 .5.24.93.27.5.05 1.09l-.54.29q-.43.24-.85-.01c-60.4-34.86-118.19-78.51-163.21-130.47C27.54 218.45 3.54 178.45 0 133.69v-16C6.54-7.68 148.77-38.57 219.85 56.48Z"/><circle cx="844.72" cy="36.32" r="12.89" fill="#1d3b75"/><path fill="#1d3b75" d="M561.46 77.1c11.99 5.92 16.7 17.61 14.55 30.52-3.16 19-20.4 25.28-38.08 25.35q-17.34.07-34.73.01a.45.44 0 0 1-.45-.44q-.01-44.54 0-89.22c.01-10.89 2.16-16.5 13.74-16.55q17.86-.08 23.51-.02c17.2.19 32.84 9.38 32.34 28.35-.24 8.95-3.83 16.1-10.94 21.34a.39.39 0 0 0 .06.66Zm-23.58-32.61c-5.39-.03-14.34-1.71-14.38 6.77q-.06 8.83.03 17.7 0 .51.51.52c5.53.06 16.85 1.22 21.45-1.38 8.48-4.79 8.06-19.73-1.47-22.91q-1.97-.67-6.14-.7Zm-6.61 41.79c-4.69.05-7.61 1.48-7.67 6.48q-.15 10.7-.09 21.45 0 .52.52.52c7.05.06 18.83 1.24 24.53-1.62 10.15-5.1 8.68-22.3-2.07-25.96-4.25-1.45-10.32-.93-15.22-.87ZM779.57 81.87q3.63.68 6.93-.7.54-.23.87-.73l15.31-23.65q.35-.54 1-.54h23.77q.93 0 .41.77l-23.54 34.67q-.15.23.01.44c.89 1.15 2.03 2.37 2.69 3.66q9.77 18.97 21.23 36.97a.31.31 0 0 1-.26.48q-8.45.03-16.87 0c-6-.02-9.76-1.12-12.56-6.3q-6.01-11.15-11.88-22.37c-1.6-3.05-4.07-3.63-7.18-2.95q-.5.11-.5.62v30.51a.5.5 0 0 1-.5.5h-21.25q-.5 0-.5-.5V27.24a.43.43 0 0 1 .41-.43c9.02-.35 21.98-2.78 21.85 10.83q-.2 21.82.08 43.66 0 .48.48.57ZM891.06 64.4q11.93-11.67 27.73-9.63c15.73 2.04 22.92 12.62 22.93 27.95q0 25.02.36 50.08a.43.43 0 0 1-.43.44c-8.4.03-22.04 2.41-22.09-10.3q-.06-16.93-.1-33.87c-.02-8.37-1.14-14.85-11.25-13.56-12.68 1.63-16.96 11.87-16.96 23.31v34.08a.35.34-90 0 1-.34.35h-21.28q-.63 0-.63-.63V56.73a.46.46 0 0 1 .45-.46c7.94-.11 18.35-2.12 21.09 7.99q.14.52.52.14Z"/><path fill="#1d3b75" d="M1000.77 126.85c-5.28 4.13-12.81 5.34-19.66 4.71-41.73-3.79-43.23-71.52-1.93-76.91q14.19-1.85 25.17 6.73.42.33.68-.14c3.89-6.89 12.71-5.33 19.27-5.22a.53.52 1.1 0 1 .52.53q-.26 33.21-.37 66.45-.03 10.8-1.51 15.69c-8.5 28.26-45.79 28.59-66.98 17.4q-.44-.24-.26-.72c3.3-8.65 4.34-17.82 14.72-14.3 12.66 4.29 30.3 4.38 32.22-13.18q.3-2.74-1.87-1.04Zm-18.34-52.29c-15.01 4.29-13.6 33.11.47 37.01 18.57 5.14 23.08-15.76 18.54-28.5-2.83-7.93-11.57-10.64-19.01-8.51ZM647.73 62.57c16.68 12.55 19.87 36.65 9.32 53.96-10.48 17.21-34.07 22.43-52.28 14.19-27.19-12.3-30.27-53.1-4.97-69.46 14-9.06 34.42-8.86 47.93 1.31Zm-24.789 53.3a21.22 18.71 89.7 0 0 18.599-21.318 21.22 18.71 89.7 0 0-18.821-21.122 21.22 18.71 89.7 0 0-18.599 21.318 21.22 18.71 89.7 0 0 18.821 21.122Z"/><path fill="#1d3b75" d="M749 96.75c-1.76 24.22-20.57 40.35-44.86 37.6-46.97-5.32-47.84-73.27-.67-79.32 25.3-3.24 47.43 15.62 45.53 41.72Zm-40.022 19.12a21.22 18.71 89.6 0 0 18.562-21.35 21.22 18.71 89.6 0 0-18.858-21.09 21.22 18.71 89.6 0 0-18.562 21.35 21.22 18.71 89.6 0 0 18.858 21.09Z"/><path fill="#1d9cd8" d="M1112.33 75.93q-2.08-1.92-4.06-2.23c-28.74-4.49-33.92 36.82-8.26 41.87 9.8 1.93 19.76-2.69 26.62-9.87a.65.65 0 0 1 1.02.11l8.6 14.21a.9.89 52.1 0 1-.13 1.09q-15.56 15.42-36.2 13.76c-46.77-3.76-51.95-68.31-6.23-78.88 10.96-2.53 26.76-1.11 34.88 7.43 4.23 4.45 4.04 11.91 3.52 19.02q-.04.46-.51.48c-7.83.24-16.62 1.98-18.75-6.14q-.13-.5-.5-.85Z"/><path fill="#1d9cd8" d="M1169.47 133.69c-47.93-8.96-38.81-83.66 12.51-78.88 55.41 5.15 44.9 89.62-12.51 78.88Zm8.975-17.83a21.21 18.72 89.5 0 0 18.534-21.373 21.21 18.72 89.5 0 0-18.904-21.046 21.21 18.72 89.5 0 0-18.534 21.372 21.21 18.72 89.5 0 0 18.904 21.046Z"/><path fill="#1d9cd8" d="M1247.49 65.4c11.54-13.26 34.87-15.83 43.33 2.05q.3.63.73.08 12.92-16.33 33.18-11.77c12.34 2.78 17.15 15.25 17.2 26.55q.13 25.23.05 50.55a.39.39 0 0 1-.39.39c-10.44.1-20.78 2.66-20.81-12.02q-.04-16 .04-31.98c.05-9.09-2.69-18.62-14.27-13.67-7.74 3.31-11.8 13.82-11.92 21.62q-.26 17.79-.09 35.66a.38.38 0 0 1-.38.39h-20.37q-.51 0-.51-.51-.09-23.05-.01-45.98c.06-17.82-17.67-14.2-22.8-2.03-2.46 5.84-3.21 10.04-3.21 16.84q-.02 15.63-.01 31.33a.35.34 90 0 1-.34.35h-20.28q-.63 0-.63-.63V56.99a.45.44 88.7 0 1 .42-.45c5.91-.21 14.42-1.22 18.56 3.99 1.02 1.29 1.31 3.04 1.81 4.71q.21.73.7.16Z"/><path fill="#1d3b75" d="M856.7 71.99c.25 20.16.29 40.48-.28 60.62q-.02.64-.66.64h-20.64q-.62 0-.62-.63V56.73a.46.46 0 0 1 .46-.46c6.74-.09 17.46-1.76 20.64 5.73q1.01 2.37 1.1 9.99Z"/><circle cx="1045.86" cy="121.31" r="12.89" fill="#1d9cd8"/><path fill="#1d3b75" d="M591.25 404c39.2.26 73.19-25.88 76.03-66.07q.05-.68.73-.68h7.01q.59 0 .53.58c-4.49 48.88-43.21 76.89-90.58 73.75-74.03-4.91-95.33-81.92-79.25-142.84 8.42-31.93 29.36-58.18 61.52-67.77 19.61-5.86 43.32-5.6 62.45 2.63q37.84 16.28 44.35 59.74.14.91-.79.91h-6.75q-.63 0-.75-.61c-6.66-34.33-28.34-55.43-63.13-58.16-63.98-5.03-94.42 48.48-93.9 105.26.44 48.58 29.76 92.91 82.53 93.26ZM847.12 360.52c-9.82 27.21-34.12 44.19-61.71 49.32-23.63 4.4-53.74 1.95-72.87-14.11-15.87-13.33-18.16-36.62-14.56-55.84 6.61-35.27 38.82-43.16 69.34-44.89q28.48-1.63 44.18-2.99 4.9-.42 12.78-2.12c20.27-4.37 24.63-16.66 23.02-36.18-1.02-12.46-3.54-24.54-12.62-33.41-11.19-10.93-26.27-14.24-42.13-15-40.33-1.93-71.81 16.92-74.85 59.73q-.04.47-.5.47h-6.95a.84.84 0 0 1-.84-.91c2.89-35.62 23.57-59.91 58.94-65.96q23.36-4 45.9 1.37c28.54 6.79 41.47 29.75 41.48 57.91q.03 64.66.07 129.34c0 14 15.93 13.43 25.33 11.76q.62-.11.62.53v7.02q0 .58-.58.6c-13.7.43-33.14 1.49-33.5-17.85q-.27-14.37-.15-28.71a.21.21 0 0 0-.4-.08Zm0-73.47c-4.97 4.68-8.43 6.97-15.18 9.07q-13.86 4.32-25.94 4.97-20.75 1.1-41.48 2.43c-29.21 1.87-55.59 10-59.22 43.86-4.9 45.73 33.16 60.05 70.96 55.79 35.9-4.04 64.33-28.9 70.15-65.01 2.46-15.27 1.14-34.54 1.07-50.96q0-.49-.36-.15ZM912.44 252.46a.3.3 0 0 0 .49-.16c8.6-38.21 43.02-56.88 79.98-55.18q.59.02.59.61v6.74q0 .86-.86.81c-53.23-3.39-80.6 39.28-80.62 87.22q-.03 57.02-.02 114.05 0 .7-.7.7h-7.05q-.5 0-.5-.5v-204.5q0-.5.5-.5h7.2q.54 0 .54.54c.01 5.07-.54 49.32.45 50.17ZM991.61 306.88c.77 43.98 17.06 89.86 67.15 96.12 46.97 5.88 87.29-16.79 93.59-66.4q.07-.6.68-.6h7.18q.57 0 .51.56c-5.3 53.48-49.91 79.2-100.21 74.87-61.98-5.34-80.36-65.34-76.89-118.17 3.37-51.18 37.69-97 92.86-96.23 60.92.85 87.94 53.76 86.95 107.82q-.02 1.4-1.42 1.4H992.23q-.63 0-.62.63Zm72.58-100.92c-46.06 5.55-70.91 48.95-72.38 91.57q-.01.47.46.47h162.2q.44 0 .45-.44c.51-52.75-33.24-98.52-90.73-91.6ZM1227.26 396.42c27.29 11.47 70.97 11.36 93.84-10.25 11.38-10.75 15.26-24.1 12.37-39.41-4.17-22.02-27.29-31.2-46.2-35.81q-24.45-5.97-48.76-12.47c-25.59-6.83-43.81-15.96-45.37-45.28q-1.39-26.02 17.91-41.14c19.63-15.38 48.23-17.29 72.45-13.32 34.41 5.64 54.46 27.55 53.41 63.43q-.02.58-.6.58h-7.01q-.57 0-.57-.57c.1-49.53-41.13-60.23-81.48-55.97-28.96 3.06-53.33 25.37-44.08 56.85 5.19 17.66 23.45 23.36 41.13 27.99q20.7 5.42 54.2 14.67c25.36 7 44.75 21.26 43.98 50.52-1.41 53.84-65.08 60.79-104.02 52.66-36.93-7.71-54.56-34.86-53.3-71.56q.02-.59.61-.59h6.95q.53 0 .53.54c.06 26.03 8.58 48.45 34.01 59.13Z"/><path fill="#dadbda" d="M231.44 432h-28c-11.56-.4-79.37-2.15-83.66-12.18q-.21-.48.12-.9c4.38-5.4 23.61-7.56 31.41-8.33q50.9-5.04 107.69-2.28 28.97 1.41 51.76 5.86 3.46.68 8.45 3.45.42.23.63.66c5.72 11.74-81.33 13.68-88.4 13.72Z"/></svg>